<svg xmlns="http://www.w3.org/2000/svg" width="144" height="32" viewBox="0 0 144 32" fill="none">
  <defs><linearGradient id="gold" x1="72" y1="0" x2="72" y2="32" gradientUnits="userSpaceOnUse"><stop stop-color="#fff0bb"/><stop offset=".25" stop-color="#c89c4f"/><stop offset=".5" stop-color="#704821"/><stop offset=".72" stop-color="#edce88"/><stop offset="1" stop-color="#64401b"/></linearGradient></defs>
  <path d="m72 2 13 8 22-4-10 9 23-2-12 9 29-5-25 10-27-7-13 10-13-10-27 7L7 17l29 5-12-9 23 2-10-9 22 4Z" fill="url(#gold)" stroke="#3c2610" stroke-width="1"/>
  <path d="m72 5 10 8 20-3-9 7 14 4m-35-16-10 8-20-3 9 7-14 4" stroke="#fae2a3" stroke-width=".65"/>
  <path d="m72 7 9 9-9 11-9-11Z" fill="#38240f" stroke="#e7c57f"/>
  <path d="m72 11 5 5-5 7-5-7Z" fill="#d9b169"/>
  <circle cx="53" cy="18" r="1.25" fill="#f7dfa0"/><circle cx="91" cy="18" r="1.25" fill="#f7dfa0"/>
</svg>
